<?xml version="1.0" encoding="iso-8859-1"?>
<!-- Generator: Adobe Illustrator 19.0.0, SVG Export Plug-In . SVG Version: 6.00 Build 0)  -->
<svg version="1.1" id="Layer_1" xmlns="http://www.w3.org/2000/svg" xmlns:xlink="http://www.w3.org/1999/xlink" x="0px" y="0px"
	 viewBox="0 0 512.002 512.002" style="enable-background:new 0 0 512.002 512.002;" xml:space="preserve">
<g>
	<g>
		<path d="M332.806,333.578c-4.131-0.825-8.142,1.862-8.963,5.992l-12.059,60.691c-0.821,4.13,1.862,8.141,5.992,8.962
			c0.501,0.1,1.001,0.148,1.493,0.148c3.564,0,6.748-2.512,7.47-6.139l12.059-60.691
			C339.619,338.411,336.936,334.398,332.806,333.578z"/>
	</g>
</g>
<g>
	<g>
		<path d="M367.472,303.232c-4.129-0.823-8.142,1.862-8.963,5.991l-12.06,60.691c-0.821,4.13,1.862,8.142,5.991,8.963
			c0.502,0.1,1.001,0.148,1.494,0.148c3.564,0,6.748-2.512,7.469-6.139l12.06-60.691
			C374.283,308.065,371.601,304.053,367.472,303.232z"/>
	</g>
</g>
<g>
	<g>
		<path d="M481.259,223.056c-4.697-4.697-10.038-8.533-15.814-11.456v-48.842c19.122-9.751,31.214-29.262,31.214-51.05V7.623
			c0-4.21-3.413-7.623-7.623-7.623h-21.189c-4.21,0-7.623,3.413-7.623,7.623v61.39h-2.694V7.623c0-4.21-3.413-7.623-7.623-7.623
			h-21.189c-4.21,0-7.623,3.413-7.623,7.623v61.39h-2.694V7.623c0-4.21-3.413-7.623-7.623-7.623h-21.187
			c-4.21,0-7.623,3.413-7.623,7.623v104.083c0,21.788,12.092,41.298,31.214,51.05v47.221c-6.481,2.792-12.498,6.704-17.786,11.652
			l-15.293,13.673l-48.742-56.861c9.009-17.707,5.108-36.55-11.644-56.094c-13.145-15.333-33.421-30.144-52.916-38.649
			c-23.576-10.286-43.007-10.422-54.714-0.386c-11.708,10.036-14.543,29.26-7.982,54.13c5.426,20.566,16.962,42.867,30.106,58.202
			c16.521,19.272,34.29,26.087,52.888,20.317l49.737,58.022l-71.791,64.183l-76.27-89.779c-0.724-0.852-1.627-1.535-2.645-1.999
			l-14.671-6.694c-2.435-1.111-5.274-0.864-7.48,0.651l-6.998,4.806l-9.481-15.021c-0.792-1.254-1.932-2.25-3.282-2.866
			l-23.106-10.544c-2.684-1.225-5.831-0.792-8.084,1.112c-2.252,1.903-3.206,4.934-2.448,7.784l18.38,69.062
			c0.292,1.096,0.823,2.112,1.557,2.975l77.631,91.381l-5.933,5.305c-0.046,0.042-0.091,0.082-0.136,0.125
			c-7.021,6.59-12.434,14.402-16.074,22.98h-20.01v-7.964c0-4.21-3.413-7.623-7.623-7.623H20.276c-4.21,0-7.623,3.413-7.623,7.623
			v21.269c0,25.064,20.39,45.454,45.453,45.454h130.141c0.145,0,0.287-0.013,0.43-0.021c3.11,5.772,7.076,11.132,11.857,15.913
			c12.866,12.866,29.882,19.909,48.03,19.909c0.37,0,0.742-0.002,1.113-0.008c18.51-0.294,35.685-7.869,48.38-21.333
			l184.352-181.454c0.071-0.07,0.142-0.142,0.211-0.215c11.037-11.76,16.975-27.117,16.72-43.242
			C499.084,249.621,492.663,234.46,481.259,223.056z M58.106,460.953v0.001c-16.656,0-30.207-13.551-30.207-30.208V417.1h122.85
			v7.964c0,4.21,3.413,7.623,7.623,7.623h23.186c-0.559,3.359-0.871,6.788-0.926,10.262c-0.098,6.166,0.634,12.202,2.113,18.005
			H58.106z M397.212,111.706v-96.46h5.942v61.39c0,4.21,3.413,7.623,7.623,7.623h17.941c4.21,0,7.623-3.413,7.623-7.623v-61.39
			h5.943v61.39c0,4.21,3.413,7.623,7.623,7.623h17.941c4.21,0,7.623-3.413,7.623-7.623v-61.39h5.943v96.46
			c0,17.291-10.376,32.629-26.432,39.075c-2.89,1.16-4.783,3.96-4.783,7.074v47.112h-21.771v-47.112
			c0-3.113-1.894-5.914-4.783-7.074C407.587,144.335,397.212,128.997,397.212,111.706z M295.216,202.004
			c-1.482-1.729-3.613-2.662-5.79-2.662c-1.027,0-2.063,0.207-3.048,0.637c-9.612,4.197-22.911,6.367-40.591-14.257
			c-11.742-13.697-22.064-33.687-26.94-52.168c-4.844-18.361-3.662-32.816,3.162-38.665c6.825-5.849,21.29-4.808,38.695,2.785
			c17.519,7.643,35.695,20.9,47.437,34.597c17.901,20.882,13.433,33.866,7.54,42.845c-1.863,2.838-1.624,6.566,0.585,9.145
			l52.468,61.207l-4.421,3.953l-16.4,14.057L295.216,202.004z M143.251,289.092l-13.787-51.803l6.356,2.901l12.497,19.8
			c1.106,1.753,2.879,2.979,4.909,3.398c2.03,0.417,4.144-0.009,5.852-1.183l9.974-6.85l9.202,4.199l75.42,88.778l-34.155,30.536
			L143.251,289.092z M471.603,298.448L287.257,479.895c-0.071,0.07-0.142,0.142-0.211,0.215
			c-9.855,10.501-23.212,16.409-37.611,16.637c-14.399,0.253-27.938-5.254-38.121-15.437c-10.183-10.183-15.665-23.721-15.437-38.12
			c0.228-14.369,6.113-27.702,16.573-37.551l161.903-144.745l10.171-8.719c0.57-0.489,1.059-1.056,1.458-1.678l19.642-17.56
			c0.046-0.042,0.091-0.083,0.136-0.125c8.362-7.848,18.784-12.029,29.345-12.598h5.105c11.002,0.622,21.817,5.17,30.269,13.623
			C488.311,251.669,488.796,280.021,471.603,298.448z"/>
	</g>
</g>
<g>
	<g>
		<path d="M454.501,249.813c-7.939-7.937-20.857-7.938-28.795,0.001c-3.846,3.846-5.963,8.959-5.963,14.397
			c0,5.439,2.117,10.551,5.963,14.397c3.969,3.969,9.183,5.953,14.397,5.953s10.428-1.984,14.397-5.953
			c3.846-3.846,5.963-8.959,5.963-14.397C460.464,258.772,458.347,253.66,454.501,249.813z M443.72,267.826
			c-1.993,1.994-5.24,1.995-7.234,0c-0.966-0.967-1.498-2.25-1.498-3.616c0-1.366,0.532-2.651,1.498-3.616
			c0.997-0.997,2.307-1.496,3.617-1.496c1.31,0,2.62,0.498,3.617,1.495c0.966,0.967,1.498,2.25,1.498,3.617
			C445.218,265.577,444.687,266.861,443.72,267.826z"/>
	</g>
</g>
<g>
	<g>
		<path d="M260.349,432.275c-3.846-3.845-8.959-5.963-14.397-5.963s-10.551,2.117-14.397,5.963
			c-3.846,3.846-5.963,8.959-5.963,14.397c0,5.439,2.117,10.551,5.963,14.397c3.846,3.846,8.959,5.963,14.397,5.963
			s10.551-2.117,14.397-5.963s5.964-8.959,5.964-14.397C266.313,441.234,264.195,436.12,260.349,432.275z M249.568,450.289
			c-0.967,0.967-2.25,1.498-3.616,1.498s-2.651-0.532-3.617-1.498c-0.966-0.967-1.498-2.25-1.498-3.616
			c0-1.366,0.532-2.651,1.498-3.617c0.967-0.966,2.25-1.498,3.617-1.498c1.366,0,2.65,0.532,3.616,1.498
			c0.967,0.966,1.498,2.25,1.498,3.616C251.066,448.039,250.534,449.323,249.568,450.289z"/>
	</g>
</g>
<g>
</g>
<g>
</g>
<g>
</g>
<g>
</g>
<g>
</g>
<g>
</g>
<g>
</g>
<g>
</g>
<g>
</g>
<g>
</g>
<g>
</g>
<g>
</g>
<g>
</g>
<g>
</g>
<g>
</g>
</svg>
