<svg xmlns="http://www.w3.org/2000/svg" width="54" height="54" viewBox="0 0 54 54"><path d="M1,27H1A26,26,0,0,1,27,1h0A26,26,0,0,1,53,27h0A26,26,0,0,1,27,53h0A26,26,0,0,1,1,27Z" fill="#f23030"/><path d="M27,54A27,27,0,1,1,54,27,27.03,27.03,0,0,1,27,54ZM27,2A25,25,0,1,0,52,27,25.028,25.028,0,0,0,27,2Z" fill="#841515"/><path d="M5,50a1,1,0,0,1-.707-1.707l17-17a1,1,0,0,1,1.414,1.414l-17,17A1,1,0,0,1,5,50Z" fill="#fefefe"/><path d="M23,46.143H21V33H7.857V31H23Z" fill="#fcfcfc"/><path d="M32,23a1,1,0,0,1-.707-1.707l17-17a1,1,0,0,1,1.414,1.414l-17,17A1,1,0,0,1,32,23Z" fill="#fff"/><path d="M46.143,23H31V7.857h2V21H46.143Z" fill="#fff"/></svg>