<svg xmlns="http://www.w3.org/2000/svg" width="512.001" height="512" viewBox="0 0 512.001 512"><path d="M511.867,234.008a10.766,10.766,0,0,0-2.98-6.867.061.061,0,0,1-.01-.014L448,166.25V106.667c0-.232-.118-.44-.133-.672a10.534,10.534,0,0,0-.546-2.741,9.78,9.78,0,0,0-2.445-4.129l-96-96a10.549,10.549,0,0,0-3.135-2.1,9.716,9.716,0,0,0-.97-.345,10.474,10.474,0,0,0-2.8-.559C341.75.112,341.553,0,341.333,0H74.667A10.667,10.667,0,0,0,64,10.667V166.25L3.128,227.122a.128.128,0,0,1-.016.019,10.526,10.526,0,0,0-2.053,3.046,10.37,10.37,0,0,0-.357,1,10.48,10.48,0,0,0-.57,2.818c-.014.23-.132.424-.132.659V437.334A10.667,10.667,0,0,0,10.667,448H64v53.333A10.667,10.667,0,0,0,74.667,512H437.334A10.667,10.667,0,0,0,448,501.333V448h53.333A10.667,10.667,0,0,0,512,437.333V234.667C512,234.432,511.882,234.238,511.867,234.008Z" fill="#314e55"/><path d="M475.583,224H448V196.417Z" fill="#eaeaea"/><path d="M411.583,96H352V36.417Z" fill="#d8d8d8"/><path d="M85.333,21.333H330.666v85.333a10.667,10.667,0,0,0,10.667,10.667h85.333V224H85.333V21.333Z" fill="#eaeaea"/><path d="M64,196.417V224H36.417Z" fill="#eaeaea"/><rect width="341.333" height="42.667" transform="translate(85.333 448)" fill="#eaeaea"/><path d="M490.667,426.667H21.333V245.333H490.667Z" fill="#e65f58"/><path d="M358.272,351.3h15.594V384.48a17.267,17.267,0,0,1-5.711,2.624,28.75,28.75,0,0,1-7.888,1,19.634,19.634,0,0,1-11.878-3.626,27.536,27.536,0,0,1-8.251-10.07,56.3,56.3,0,0,1-4.9-15.051,98.732,98.732,0,0,1-1.632-18.4,95.38,95.38,0,0,1,1.632-17.952,56.55,56.55,0,0,1,4.9-14.965,29.277,29.277,0,0,1,8.251-10.241,18.725,18.725,0,0,1,11.7-3.807q12.332,0,19.584,10.517l12.512-15.232a35.522,35.522,0,0,0-13.6-11.519q-8.342-4.08-19.766-4.075a38.748,38.748,0,0,0-19.584,4.982,45.4,45.4,0,0,0-14.869,13.962,68.189,68.189,0,0,0-9.429,21.313,105.4,105.4,0,0,0-3.264,27.018,104.2,104.2,0,0,0,3.355,27.382,67.072,67.072,0,0,0,9.611,21.216,43.518,43.518,0,0,0,15.323,13.685,42.987,42.987,0,0,0,20.49,4.811,57.333,57.333,0,0,0,19.312-2.9,46.871,46.871,0,0,0,13.872-7.616v-65.1h-35.36V351.3Z" fill="#fff"/><path d="M181.2,285.013a30.112,30.112,0,0,0-11.7-6.25,47.442,47.442,0,0,0-12.693-1.814H121.27V405.333h21.4v-51.5H157.9a37.29,37.29,0,0,0,13.056-2.357,30.99,30.99,0,0,0,11.243-7.254,36.477,36.477,0,0,0,7.888-12.245,45.176,45.176,0,0,0,2.992-17.131q0-10.879-3.355-18.133A34,34,0,0,0,181.2,285.013Z" fill="#fff"/><path d="M167.509,330.71A16.187,16.187,0,0,1,155,336.064H142.666v-40.8H155a17.281,17.281,0,0,1,12.512,4.715q4.9,4.719,4.9,15.051T167.509,330.71Z" fill="#e65f58"/><path d="M272.5,368.16h-.543l-36.086-91.211H211.029V405.333h19.584l-.362-90.666h.544l36.448,90.666h23.935V276.949H272.32Z" fill="#fff"/></svg>